<?xml version="1.0" standalone="no"?>
<!DOCTYPE svg PUBLIC "-//W3C//DTD SVG 20010904//EN"
 "http://www.w3.org/TR/2001/REC-SVG-20010904/DTD/svg10.dtd">
<svg version="1.0" xmlns="http://www.w3.org/2000/svg"
 width="700.000000pt" height="700.000000pt" viewBox="0 0 700.000000 700.000000"
 preserveAspectRatio="xMidYMid meet">
<metadata>
Created by potrace 1.14, written by Peter Selinger 2001-2017
</metadata>
<g transform="translate(0.000000,700.000000) scale(0.100000,-0.100000)"
fill="#000000" stroke="none">
<path d="M3278 6995 c-1 -1 -42 -6 -89 -9 -47 -4 -94 -8 -105 -10 -10 -2 -46
-7 -79 -11 -32 -4 -68 -9 -80 -11 -11 -2 -45 -8 -75 -14 -83 -15 -89 -16 -180
-40 -47 -12 -95 -24 -107 -26 -39 -7 -261 -84 -367 -126 -243 -97 -596 -292
-766 -425 -8 -6 -51 -40 -95 -74 -342 -266 -650 -623 -875 -1014 -47 -81 -170
-327 -170 -339 0 -3 -11 -29 -24 -58 -51 -113 -131 -355 -162 -488 -21 -91
-54 -254 -59 -290 -3 -25 -8 -56 -11 -70 -5 -29 -10 -71 -21 -190 -15 -160 -7
-607 12 -708 1 -9 6 -42 9 -72 7 -62 12 -94 26 -165 6 -27 12 -59 14 -71 56
-295 209 -708 362 -974 20 -36 45 -81 56 -100 48 -84 194 -294 279 -399 178
-222 402 -439 624 -606 44 -33 82 -63 83 -67 2 -5 8 -8 13 -8 6 0 40 -21 76
-46 81 -57 287 -175 413 -236 116 -57 387 -166 455 -182 6 -2 17 -6 25 -9 14
-5 60 -16 77 -18 5 -1 19 -6 33 -11 14 -5 32 -11 40 -13 8 -2 47 -11 85 -20
39 -9 79 -19 90 -21 61 -12 185 -34 220 -39 22 -2 56 -7 75 -10 149 -21 537
-27 720 -12 884 75 1724 495 2310 1156 36 41 70 79 76 85 29 30 185 242 240
326 189 289 314 558 434 935 8 26 56 214 64 255 7 33 19 96 21 110 9 59 17
107 20 120 2 8 7 47 11 85 3 39 8 84 11 100 8 56 10 539 2 605 -4 36 -10 90
-13 120 -8 73 -12 103 -26 180 -6 36 -13 79 -16 95 -22 125 -125 481 -169 580
-7 17 -32 75 -55 130 -243 579 -707 1138 -1251 1506 -69 47 -70 47 -169 107
-84 52 -297 162 -380 197 -36 15 -83 35 -105 45 -165 72 -528 173 -745 206
-25 3 -53 8 -62 10 -9 1 -43 6 -75 9 -32 4 -76 9 -98 11 -45 6 -541 14 -547 9z"/>
</g>
</svg>
